<svg width="345" height="323" viewBox="0 0 345 323" fill="none" xmlns="http://www.w3.org/2000/svg">
<path d="M73.8604 1.07002C39.4947 6.8214 11.8449 30.6295 3.12847 61.9277C-0.0151686 73.2299 -0.229508 79.8506 0.127724 167.526C0.342063 248.045 0.41351 249.918 1.84244 256.137C9.77299 289.642 35.2079 313.517 71.3598 321.409C76.0752 322.412 82.0767 322.613 120.729 322.813C160.739 323.081 164.883 323.014 165.955 322.011C167.026 321.008 167.098 308.1 167.098 161.774C167.098 53.3006 166.884 2.20692 166.383 1.27065C165.669 0.0668687 164.454 -7.89844e-06 122.587 0.0668687C88.5784 0.133745 78.3615 0.334375 73.8604 1.07002ZM138.519 161.574V297.066L109.441 296.731C82.6483 296.464 79.7905 296.33 74.432 295.059C51.4262 289.509 34.3505 272.923 29.5636 251.322C27.9918 244.568 27.9918 78.1787 29.4922 71.5579C33.779 52.7656 47.711 37.1834 66.5014 30.1613C75.9324 26.6169 80.2906 26.2156 110.87 26.1487L138.519 26.0819V161.574Z" fill="white"/>
<path d="M80.0048 66.9435C75.5037 67.746 68.6448 70.956 65.001 73.9655C57.4992 80.0513 53.784 88.6783 54.3555 98.8436C54.6413 104.127 54.9985 105.531 57.2848 109.811C60.6428 116.298 65.7155 121.047 72.6458 124.257C77.4327 126.464 78.6473 126.731 84.8631 126.932C90.5074 127.132 92.5079 126.932 96.2946 125.728C111.798 120.846 121.158 106.735 118.514 92.2897C115.442 75.1024 98.0093 63.5996 80.0048 66.9435Z" fill="white"/>
<path d="M201.892 0.468119C201.607 0.668749 201.392 73.163 201.392 161.574C201.392 307.432 201.464 322.211 202.535 322.613C204.465 323.281 259.907 323.014 266.766 322.345C295.773 319.269 321.351 302.75 335.283 278.207C337.069 275.063 339.427 269.78 340.641 266.503C345.142 253.93 345 257.274 345 161.173C345 84.4651 344.857 73.0292 343.856 68.1472C336.783 33.3045 308.419 7.02202 271.124 1.00313C266.123 0.200613 258.407 -1.67334e-05 233.543 -1.67334e-05C216.396 -1.67334e-05 202.107 0.200613 201.892 0.468119ZM278.197 146.125C289.343 148.867 298.488 156.826 302.203 166.991C304.561 173.277 304.489 182.506 302.132 188.258C297.774 198.824 289.2 206.247 278.197 208.989C260.336 213.336 241.331 203.238 236.115 186.653C234.543 181.57 234.615 173.01 236.401 167.793C241.76 151.409 260.336 141.778 278.197 146.125Z" fill="white"/>
</svg>
