<svg width="435" height="313" viewBox="0 0 435 313" fill="none" xmlns="http://www.w3.org/2000/svg">
<g clip-path="url(#clip0_3_18)">
<path d="M61.2814 228.187C48.9807 238.284 53.0809 257.468 79.3224 266.555C106.384 277.661 135.906 280.69 164.607 274.632C166.247 274.632 167.887 273.623 168.707 273.623V239.294L140.826 250.4C130.165 254.439 119.505 255.448 108.844 252.419C100.644 249.39 102.284 243.332 112.124 238.284L168.707 214.052V176.694L89.983 210.013C80.1424 214.052 70.3019 220.11 61.2814 228.187V228.187ZM251.532 76.7355V174.674C285.154 194.868 311.395 174.674 311.395 122.171C311.395 68.6581 295.814 44.4258 250.712 25.2419C226.931 15.1452 202.329 6.05806 177.728 0V291.797L235.131 313V67.6484C235.131 56.5419 235.131 48.4645 241.691 51.4936C250.712 54.5226 251.532 65.629 251.532 76.7355ZM358.138 204.965C334.356 194.868 308.935 190.829 284.334 193.858C271.213 194.868 258.912 198.906 247.432 203.955L244.972 204.965V244.342L298.274 220.11C308.935 216.071 319.596 215.061 330.256 218.09C338.457 221.119 336.817 227.177 326.976 232.226L244.972 269.584V307.952L358.138 256.458C366.338 252.419 373.719 247.371 380.279 239.294C386.019 229.197 383.559 215.061 358.138 204.965V204.965Z" fill="white"/>
</g>
<defs>
<clipPath id="clip0_3_18">
<rect width="435" height="313" fill="white"/>
</clipPath>
</defs>
</svg>
