<svg width="310" height="307" viewBox="0 0 310 307" fill="none" xmlns="http://www.w3.org/2000/svg">
<g clip-path="url(#clip0_3_26)">
<path d="M69.0539 26.0758C69.8497 25.3237 70.6817 24.6073 71.586 23.9625C95.8941 8.3457 123.928 0 155.036 0C184.119 0 211.393 7.98752 234.616 21.8134C236.316 22.7805 240.947 25.9326 243.298 28.7622C220.835 4.2624 154.856 56.8797 154.856 56.8797C132.067 39.4361 111.05 27.5802 95.46 23.3178C82.3655 19.7718 73.3585 22.7447 69.0539 26.0758V26.0758ZM268.691 49.2146C268.04 48.4624 267.28 47.7818 266.593 46.9938C260.95 40.833 253.969 39.3645 247.675 39.7227C241.923 41.5494 215.481 50.9697 182.889 81.4512C182.889 81.4512 219.569 116.768 242.068 152.909C264.531 189.014 277.951 217.418 269.704 256.783C295.676 228.522 310.073 191.7 310 153.482C310 113.258 294.374 76.5799 268.691 49.2146ZM212.696 168.311C198.408 152.479 183.613 137.077 168.384 122.141C164.116 117.95 159.594 113.545 154.819 108.996C154.819 108.996 147.657 116.088 138.397 125.4V125.365C126.496 137.292 111.05 152.802 102.478 161.899C87.2126 178.018 43.4798 228.629 41.0563 257.033C41.0563 257.033 31.3258 234.539 52.6677 182.602C66.5942 148.611 108.735 97.6769 126.315 81.0572C126.315 81.0572 110.218 63.5778 90.0703 51.4711L89.9256 51.4353C89.9256 51.4353 89.6724 51.2562 89.383 51.0771C79.6887 45.3462 69.0539 40.9047 58.8894 40.2958C48.5078 41.048 41.8882 48.6056 41.8882 48.6056C14.9396 76.938 -0.0720851 114.512 0.000260279 153.518C0.000260279 238.3 69.3795 307 155.036 307C200.469 307 241.308 287.622 269.704 256.747C269.704 256.711 266.448 236.473 245.613 207.425C240.657 200.655 222.788 179.45 212.696 168.311V168.311Z" fill="white"/>
</g>
<defs>
<clipPath id="clip0_3_26">
<rect width="310" height="307" fill="white"/>
</clipPath>
</defs>
</svg>
